<mxfile host="app.diagrams.net" modified="2024-06-02T12:08:03.149Z" agent="Mozilla/5.0 (Macintosh; Intel Mac OS X 10_15_7) AppleWebKit/537.36 (KHTML, like Gecko) Chrome/125.0.0.0 Safari/537.36" version="24.4.13" etag="ecO2LF7X-9IggiG-68wO" type="github">
  <diagram name="Page-1" id="lOeY3BBdX5j0-6KoOF-3">
    <mxGraphModel>
      <root>
        <mxCell id="0" />
        <mxCell id="1" parent="0" />
      </root>
    </mxGraphModel>
  </diagram>
</mxfile>
